<svg xmlns="http://www.w3.org/2000/svg" viewBox="0 0 32 32">
  <style>
    .bg { fill: #0a0a0a; }
    .fg { fill: #ffffff; }
    .ink { fill: #0a0a0a; }
    .ink-stroke { stroke: #0a0a0a; }
    @media (prefers-color-scheme: dark) {
      .bg { fill: #ffffff; }
      .fg { fill: #0a0a0a; }
      .ink { fill: #ffffff; }
      .ink-stroke { stroke: #ffffff; }
    }
  </style>
  <rect class="bg" width="32" height="32"/>
  <g class="fg">
    <polygon points="16,2.5 14.6,9 17.4,9"/>
    <polygon points="25.6,5.6 19.2,8.4 21.7,10.9"/>
    <polygon points="29.5,16 23,14.6 23,17.4"/>
    <polygon points="26.4,25.6 21.6,21.7 19.1,24.2"/>
    <polygon points="16,29.5 17.4,23 14.6,23"/>
    <polygon points="6.4,26.4 12.9,21.7 10.4,24.2"/>
    <polygon points="2.5,16 9,14.6 9,17.4"/>
    <polygon points="5.6,6.4 10.4,10.9 12.9,8.4"/>
    <circle cx="16" cy="16" r="7.2"/>
  </g>
  <circle class="ink" cx="13.4" cy="15.3" r="0.85"/>
  <circle class="ink" cx="18.6" cy="15.3" r="0.85"/>
  <path
    class="ink-stroke"
    d="M 14.5 18.4 Q 16 19.7 17.5 18.4"
    fill="none"
    stroke-width="0.7"
    stroke-linecap="round"
  />
</svg>
